inDegrees=no
num_controls=7
num_derivatives=13
num_iterations=119
num_multipliers=7
num_parameters=0
num_slacks=7
num_states=26
objective=0.444749
objective_accelerations=0.058683
objective_balance=0.003466
objective_effort=0.023297
objective_height=0.353837
objective_ligament=0.005465
solver_duration=1755.851824
status=Solve_Succeeded
success=true
DataType=double
version=3
OpenSimVersion=4.5
endheader
time	/jointset/ground_pelvis/pelvis_tilt/value	/jointset/ground_pelvis/pelvis_tx/value	/jointset/ground_pelvis/pelvis_ty/value	/jointset/hip_l/hip_flexion_l/value	/jointset/hip_l/hip_adduction_l/value	/jointset/hip_l/hip_rotation_l/value	/jointset/back/lumbar_extension/value	/jointset/patellofemoral_l/patellar_flexion_l/value	/jointset/knee_l/knee_flexion_l/value	/jointset/knee_l/knee_adduction_l/value	/jointset/knee_l/knee_rotation_l/value	/jointset/ankle_l/ankle_angle_l/value	/jointset/subtalar_l/subtalar_angle_l/value	/jointset/ground_pelvis/pelvis_tilt/speed	/jointset/ground_pelvis/pelvis_tx/speed	/jointset/ground_pelvis/pelvis_ty/speed	/jointset/hip_l/hip_flexion_l/speed	/jointset/hip_l/hip_adduction_l/speed	/jointset/hip_l/hip_rotation_l/speed	/jointset/back/lumbar_extension/speed	/jointset/patellofemoral_l/patellar_flexion_l/speed	/jointset/knee_l/knee_flexion_l/speed	/jointset/knee_l/knee_adduction_l/speed	/jointset/knee_l/knee_rotation_l/speed	/jointset/ankle_l/ankle_angle_l/speed	/jointset/subtalar_l/subtalar_angle_l/speed	/forceset/tau_hip_flexion_l	/forceset/tau_hip_adduction_l	/forceset/tau_hip_rotation_l	/forceset/tau_knee_flexion_l	/forceset/tau_ankle_angle_l	/forceset/tau_subtalar_angle_l	/forceset/tau_lumbar_extension	lambda_cid13_p0	lambda_cid13_p1	lambda_cid13_p2	lambda_cid13_p3	lambda_cid13_p4	lambda_cid13_p5	lambda_cid14_p0	/jointset/ground_pelvis/pelvis_tilt/accel	/jointset/ground_pelvis/pelvis_tx/accel	/jointset/ground_pelvis/pelvis_ty/accel	/jointset/hip_l/hip_flexion_l/accel	/jointset/hip_l/hip_adduction_l/accel	/jointset/hip_l/hip_rotation_l/accel	/jointset/back/lumbar_extension/accel	/jointset/patellofemoral_l/patellar_flexion_l/accel	/jointset/knee_l/knee_flexion_l/accel	/jointset/knee_l/knee_adduction_l/accel	/jointset/knee_l/knee_rotation_l/accel	/jointset/ankle_l/ankle_angle_l/accel	/jointset/subtalar_l/subtalar_angle_l/accel	gamma_cid13_p0	gamma_cid13_p1	gamma_cid13_p2	gamma_cid13_p3	gamma_cid13_p4	gamma_cid13_p5	gamma_cid14_p0
1.5	-0.3690060299271665	-0.0232099049034041	0.7589321550535345	1.116690544270844	-0.4344152558009588	-0.2098514826233106	-0.2256813758483167	0.8190208432507267	0.819020843250734	-0.1240083412898187	-0.1461707274449648	0.1355043420122709	-0.01453852944764948	0.6798587004720988	0.2708273360063689	0.5460264376507652	-2.487261348768413	0.2065638367208058	-0.714997410635579	0.3141399598701907	-2.050518237749023	-2.050518237749048	-0.1527109414861667	0.1365370789624863	-0.414093657657128	0.02392672005519094	-0.1754406870046491	0.03084113209868632	-0.009100986693193803	-0.2050149557708627	0.04127012088818498	0.04164410483110184	0.1690235064296112	-18.82180957881508	-17.69928700384764	5.80839925201401	-7.674123089384423	-519.710417753854	-59.60222989586894	-24.27820643872939	0.6887725467157855	0.7169551588628288	-0.530574374347811	-1.313323829979623	0.7207384760349382	-0.2632060451386766	1.485188122123911	-1.348781578145588	-1.348781578145588	0.194718522753012	0.2182118430512414	-0.5301786778372886	0.5165983915230733	5.623061535585765e-07	7.722222020545101e-08	-3.705000359645942e-06	-2.556999478491133e-07	8.351591640634033e-07	-1.063409307385285e-07	4.973408332944846e-07
1.51	-0.3621731068478869	-0.02046600567648867	0.764364830487359	1.091753834065772	-0.4323152706558008	-0.2170115250276019	-0.2224672065650667	0.7984503499545366	0.7984503499545267	-0.1255304009632991	-0.1447945973162514	0.1313370691203747	-0.01427549489207064	0.6866128134155934	0.2779206232521461	0.5403933696168836	-2.499729178227924	0.2134183553749007	-0.7169507277642517	0.3286501366564673	-2.063298339185027	-2.063298339185035	-0.151659640383374	0.1386531701325168	-0.4192840018372523	0.02869710551555521	-0.1689872781724977	0.029743774199108	-0.008827116653237571	-0.2027350661918727	0.04223738393946071	0.04093558754781302	0.1638115351478861	-18.29576952483475	-17.49296113351818	5.786101263961552	-7.760912407120064	-515.6580552941832	-59.82544403482959	-25.21407740337196	0.6518334778484068	0.7007031363126303	-0.5967945485683241	-1.160701362986417	0.6659511993426309	-0.1518584127300185	1.427368438379555	-1.200413850596711	-1.200413850594132	0.06649352772937517	0.2022728253374639	-0.5019369093523371	0.4601098372740041	5.725198941068975e-07	3.494258718104893e-07	-3.47031976262879e-06	-1.841310247088502e-07	8.462540658382406e-07	1.304958240335372e-08	5.049364386980369e-07
1.52	-0.355276022077236	-0.01765213605133999	0.7697377509347126	1.066703007794294	-0.4301471117962528	-0.2241891933763796	-0.219109248317654	0.7777604977591325	0.7777604977591058	-0.1270407161010144	-0.1433985132615658	0.1271201978624269	-0.01396418623909198	0.6926910387463714	0.2848214156530219	0.5340754403566023	-2.510084562049417	0.2201985795988304	-0.718522599532863	0.3428977527027453	-2.074390017591784	-2.074390017591776	-0.150362034333102	0.1405278641568877	-0.4240133308674703	0.03358153953515554	-0.1625338693403461	0.02864641629952978	-0.008553246613282781	-0.2004551766128833	0.0432046469907365	0.04022707026452436	0.158599563866161	-17.77154434143617	-17.28709371681111	5.764765013670369	-7.889953374700579	-511.6601620853934	-60.11415963382404	-26.14905990721976	0.5535950241724377	0.6784561898825632	-0.6675466196277617	-0.8908347023759515	0.705879590001914	-0.186916973126472	1.432675974124203	-1.011096972296053	-1.011096972296054	0.2439795122488715	0.169932413919329	-0.4379756478560286	0.5394081033702858	5.23315945221528e-07	7.295157072629628e-07	-2.805860527691714e-06	-5.760422481409466e-08	7.759773549808257e-07	1.171724704146814e-07	4.714604890590257e-07
1.53	-0.3483214738228761	-0.01477043503917803	0.7750440659086026	1.041559601922383	-0.4279113147767011	-0.2313828937534518	-0.2156100940815563	0.7569687002629361	0.7569687002629286	-0.1285348062323655	-0.1419864017314117	0.1228584093629905	-0.0136031316139533	0.698123664299667	0.2914659221726116	0.5270735903134558	-2.51822969056598	0.2269260408072594	-0.7200648299821628	0.3568798794506817	-2.083656569846347	-2.083656569846336	-0.1484971050460689	0.1419000931997611	-0.4282728319968075	0.03861850089233464	-0.1567831562831865	0.02800740952236404	-0.008141014863228246	-0.1968456799050232	0.04213987543512175	0.03947803208725043	0.153832051599657	-17.90376927729792	-16.94583704236844	5.718585543283756	-7.363428630564525	-507.6672574534047	-60.2523221324401	-27.08284304636653	0.5238589056083712	0.6495634545134413	-0.7334917458136352	-0.7213016822399471	0.6509104959777919	-0.1146585222726601	1.372998765213844	-0.837568194359644	-0.8375681943593222	0.1517942951842083	0.121462620981939	-0.4091540561382984	0.4840957187067481	4.109807013128626e-07	1.224234613053335e-06	-1.684761489964724e-06	1.273153191323085e-07	6.192433057016439e-07	2.050735067247952e-07	3.943460121872916e-07
1.54	-0.3413154467960431	-0.01182386584751693	0.78027696487223	1.016345754814118	-0.4256092969231222	-0.2385873729233055	-0.2119727150299623	0.7360936104757291	0.7360936104757415	-0.1300114381391945	-0.1405604490165278	0.1185561825101275	-0.01319205626187983	0.7029867932409722	0.2977950515528525	0.5193922383040872	-2.524172809320284	0.2334427464042647	-0.7206783580890997	0.3705427158020376	-2.091048475793839	-2.091048475793826	-0.1468703894288891	0.1432961011030584	-0.432101001552769	0.04358568492211477	-0.1510324432260274	0.02736840274519787	-0.007728783113165782	-0.1932361831971639	0.04107510387950673	0.03872899390997561	0.1490645393331526	-18.03820617332885	-16.60720836141058	5.67627023552973	-6.868960983655222	-503.7260934249725	-60.42708707060712	-28.01575727092199	0.4396957017743415	0.6153807620128132	-0.8034470128721913	-0.4504327499243807	0.6637284677171815	-0.00117650465388737	1.368817894808106	-0.6361677108818377	-0.6361677108818257	0.196336778278197	0.1746881860041083	-0.3517093331804101	0.5254526378904919	3.797137543792366e-07	1.552075097093069e-06	-1.21985121117288e-06	2.245973274319979e-07	5.835643489666735e-07	2.911921348988805e-07	3.766372770262536e-07
